-
http:// www . torrentkit. com        
http:// www .torrentkit. com       the fast  and The Hottest Private Tracker on the net

Please Seed back to make the speed Faster!!!

and don't forget to visit      ...... www .torrentkit .com..........
-[img]http://img703.imageshack.us/img703/4283/hallpassver3.jpg[/img]

[color=blue][size=5][b]Hall Pass 2011 TS XVID AC3 Hive-CM8[/b][/size][/color]



[b]Thx Hive

CM8 Doing It Right The First Time :D

VideoSource: Cinedub
AudioSource: Imagine
thx

Encode:
cinedubvideo was overbrightened, lack of colours and the ar was off, 
corrected it without cropping the picture and did the normal stuff best i could.
cleaned the audio and corrected the slightly oose part in the last 10mins.
slightly less brightness, black is more black and colours are now friendlier.
enjoy

Video: 656x352 @bitrate 1200 2pass
Audio: English AC3 2.0 Stereo
Sample: yes included[/b]


[url]http://www.imdb.com/title/tt0480687/[/url]



General
Complete name                    : Hall.Pass.2011.TS.XVID.AC3.Hive-CM8.avi
Format                           : AVI
Format/Info                      : Audio Video Interleave
File size                        : 971 MiB
Duration                         : 1h 32mn
Overall bit rate                 : 1 465 Kbps
Writing application              : Nandub v1.0rc2
Writing library                  : Nandub build 1853/release

Video
ID                               : 0
Format                           : MPEG-4 Visual
Format profile                   : Advanced Simple@L5
Format settings, BVOP            : Yes
Format settings, QPel            : Yes
Format settings, GMC             : No warppoints
Format settings, Matrix          : Default (H.263)
Muxing mode                      : Packed bitstream
Codec ID                         : XVID
Codec ID/Hint                    : XviD
Duration                         : 1h 32mn
Bit rate                         : 1 199 Kbps
Width                            : 656 pixels
Height                           : 352 pixels
Display aspect ratio             : 1.864
Frame rate                       : 25.000 fps
Color space                      : YUV
Chroma subsampling               : 4:2:0
Bit depth                        : 8 bits
Scan type                        : Progressive
Bits/(Pixel*Frame)               : 0.208
Stream size                      : 795 MiB (82%)
Writing library                  : XviD 1.2.1 (UTC 2008-12-04)

Audio
ID                               : 1
Format                           : AC-3
Format/Info                      : Audio Coding 3
Mode extension                   : CM (complete main)
Codec ID                         : 2000
Duration                         : 1h 32mn
Bit rate mode                    : Constant
Bit rate                         : 256 Kbps
Channel(s)                       : 2 channels
Channel positions                : Front: L R
Sampling rate                    : 48.0 KHz
Bit depth                        : 16 bits
Stream size                      : 170 MiB (17%)
Alignment                        : Split accross interleaves
Interleave, duration             : 40 ms (1.00 video frame)
Interleave, preload duration     : 500 ms



Owen Wilson        ... Rick
Jason Sudeikis ... Fred
Jenna Fischer ... Maggie
Christina Applegate ... Grace
Nicky Whelan ... Leigh
Richard Jenkins ... Coakley
Stephen Merchant ... Gary
Larry Joe Campbell ... Hog-Head
Bruce Thomas ... Rick Coleman



A married man is granted the opportunity to have an affair by his wife.
Joined in the fun by his best pal, things get a
little out of control when both wives start engaging
in extramarital activities as well.  



[img]http://img848.imageshack.us/img848/8389/53065568.png[/img]
[img]http://img203.imageshack.us/img203/8694/hahagw.png[/img]
[img]http://img585.imageshack.us/img585/9295/hhaaha.png[/img]
[img]http://img269.imageshack.us/img269/340/hhahaaha.png[/img]
[img]http://img580.imageshack.us/img580/2267/hhahahaaha.png[/img]
[img]http://img163.imageshack.us/img163/4108/hhahahhaaaha.png[/img]
[img]http://img12.imageshack.us/img12/2935/hhahahhahaaaha.png[/img]
[img]http://img197.imageshack.us/img197/2273/hhahahhahahaaaha.png[/img]
[img]http://img121.imageshack.us/img121/1331/hhahahhahahahaaaha.png[/img]





Greetz

iNK,LUSi,,MAGNET,CLASSiFiED,THC,LEGi0N,T0XiC,IMAGiNE,ViSiON,WBZ,FLAWL3SS,NOVA
Vik,Rapeseed,D2U,SAFC,goldadvance,MEMORY100,KaN1vE,Unevano,Pinnz,Wayne,Mr Hive
and all P2P groups 
Great Work Guys :D

CM8@hushmail.com